<?xml version="1.0" encoding="utf-8"?>
<!-- Generator: Adobe Illustrator 27.2.0, SVG Export Plug-In . SVG Version: 6.00 Build 0)  -->
<svg version="1.1" id="Layer_1" xmlns="http://www.w3.org/2000/svg" xmlns:xlink="http://www.w3.org/1999/xlink" x="0px" y="0px"
	 viewBox="0 0 292.15 101.33" style="enable-background:new 0 0 292.15 101.33;" xml:space="preserve">
<style type="text/css">
	.st0{fill:#E80013;}
	.st1{fill:#FFFFFF;}
</style>
<g>
	
		<rect x="163.08" y="58.69" transform="matrix(0.7071 -0.7071 0.7071 0.7071 3.1356 140.0476)" class="st0" width="15.11" height="15.11"/>
	<g>
		<g>
			<path class="st1" d="M33.76,72.67c-4.1,0-7.94-0.77-11.5-2.31c-3.56-1.54-6.69-3.65-9.37-6.34c-2.69-2.68-4.8-5.81-6.34-9.37
				c-1.54-3.56-2.31-7.39-2.31-11.5V5.5h10.86v37.66c0,2.6,0.48,5.02,1.45,7.29c0.96,2.26,2.29,4.24,3.98,5.93
				c1.69,1.69,3.67,3.02,5.93,3.98c2.26,0.97,4.69,1.45,7.29,1.45c2.59,0,5.02-0.48,7.29-1.45c2.26-0.96,4.24-2.29,5.93-3.98
				c1.69-1.69,3.03-3.67,4.03-5.93c1-2.26,1.49-4.69,1.49-7.29V5.5h10.86v37.66c0,4.11-0.79,7.94-2.35,11.5
				c-1.57,3.56-3.68,6.68-6.34,9.37c-2.66,2.69-5.79,4.8-9.42,6.34C41.63,71.9,37.8,72.67,33.76,72.67z"/>
		</g>
		<g>
			<path class="st1" d="M123.11,72.67V27.13l-19.01,14.12L85.08,27.13v45.53H74.22V5.59l29.87,22.18
				c4.89-3.68,9.85-7.38,14.89-11.09c5.04-3.71,10.03-7.41,14.98-11.09v67.08H123.11z"/>
		</g>
		<polygon class="st1" points="171.81,5.41 201.95,72.67 189.91,72.67 170.45,28.76 151.08,72.67 138.95,72.67 169.18,5.41 		"/>
		<g>
			<path class="st1" d="M255.91,72.67V27.13l-19.01,14.12l-19.01-14.12v45.53h-10.86V5.59l29.87,22.18
				c4.89-3.68,9.85-7.38,14.89-11.09c5.04-3.71,10.03-7.41,14.98-11.09v67.08H255.91z"/>
		</g>
		<g>
			<path class="st1" d="M277.63,72.67V5.41h10.86v67.26H277.63z"/>
		</g>
	</g>
	<g>
		<path class="st0" d="M74.51,91.51c0.44,0.52,0.66,1.13,0.66,1.82c0,0.57-0.14,1.08-0.42,1.53c-0.28,0.45-0.7,0.81-1.24,1.07
			c-0.54,0.26-1.19,0.39-1.95,0.39h-3.87V85.14h3.76c1.13,0,1.99,0.26,2.58,0.78c0.59,0.52,0.89,1.2,0.89,2.03
			c0,0.69-0.19,1.26-0.56,1.69c-0.37,0.43-0.85,0.73-1.44,0.9C73.54,90.67,74.08,90.99,74.51,91.51z M68.8,90.09h2.61
			c0.76,0,1.34-0.18,1.75-0.54c0.41-0.36,0.62-0.85,0.62-1.48c0-0.62-0.21-1.1-0.62-1.46c-0.41-0.35-1.01-0.53-1.8-0.53H68.8V90.09z
			 M73.37,94.81c0.45-0.38,0.68-0.91,0.68-1.58c0-0.67-0.24-1.21-0.71-1.61s-1.11-0.6-1.91-0.6H68.8v4.37h2.67
			C72.28,95.38,72.92,95.19,73.37,94.81z"/>
		<path class="st0" d="M83.15,85.14v11.18h-1.12V85.14H83.15z"/>
		<path class="st0" d="M91.95,96.06c-0.56-0.26-1-0.61-1.32-1.07c-0.32-0.46-0.49-0.97-0.51-1.54h1.18
			c0.05,0.54,0.29,1.02,0.72,1.43c0.43,0.41,1.05,0.62,1.87,0.62c0.76,0,1.36-0.19,1.8-0.58s0.66-0.88,0.66-1.48
			c0-0.48-0.12-0.87-0.37-1.16c-0.25-0.29-0.55-0.51-0.91-0.66c-0.36-0.14-0.86-0.3-1.5-0.47c-0.75-0.2-1.34-0.4-1.78-0.59
			c-0.44-0.19-0.81-0.49-1.12-0.9c-0.31-0.41-0.46-0.96-0.46-1.65c0-0.58,0.15-1.09,0.45-1.54c0.3-0.45,0.72-0.81,1.26-1.06
			s1.17-0.38,1.87-0.38c1.03,0,1.87,0.25,2.5,0.76c0.63,0.51,1,1.16,1.1,1.96h-1.22c-0.08-0.46-0.33-0.87-0.75-1.22
			c-0.43-0.36-1-0.54-1.73-0.54c-0.67,0-1.23,0.18-1.68,0.54c-0.45,0.36-0.67,0.85-0.67,1.46c0,0.47,0.12,0.85,0.37,1.14
			c0.25,0.29,0.55,0.51,0.92,0.66s0.87,0.31,1.5,0.48c0.72,0.2,1.31,0.4,1.76,0.6c0.45,0.2,0.83,0.5,1.14,0.9s0.46,0.95,0.46,1.63
			c0,0.52-0.14,1.02-0.42,1.49c-0.28,0.47-0.69,0.85-1.23,1.14s-1.2,0.43-1.95,0.43C93.15,96.44,92.51,96.31,91.95,96.06z"/>
		<path class="st0" d="M110.99,85.14v0.93h-3.1v10.26h-1.12V86.07h-3.12v-0.93H110.99z"/>
		<path class="st0" d="M123.52,96.33l-2.77-4.67h-2.06v4.67h-1.12V85.14h3.36c1.25,0,2.19,0.3,2.84,0.9
			c0.65,0.6,0.97,1.38,0.97,2.35c0,0.81-0.23,1.5-0.7,2.07c-0.46,0.57-1.15,0.94-2.06,1.11l2.88,4.75H123.52z M118.69,90.74h2.26
			c0.87,0,1.53-0.21,1.98-0.64c0.44-0.43,0.66-1,0.66-1.71c0-0.74-0.21-1.3-0.64-1.7c-0.43-0.4-1.1-0.6-2.02-0.6h-2.24V90.74z"/>
		<path class="st0" d="M133.97,95.71c-0.84-0.49-1.51-1.16-1.99-2.03c-0.49-0.87-0.73-1.85-0.73-2.95s0.24-2.08,0.73-2.95
			s1.15-1.55,1.99-2.03s1.78-0.73,2.82-0.73c1.04,0,1.99,0.24,2.83,0.73s1.5,1.16,1.98,2.03c0.48,0.87,0.72,1.85,0.72,2.95
			s-0.24,2.08-0.72,2.95c-0.48,0.87-1.14,1.55-1.98,2.03s-1.79,0.73-2.83,0.73C135.75,96.44,134.81,96.2,133.97,95.71z
			 M139.03,94.89c0.66-0.38,1.18-0.94,1.57-1.66c0.38-0.72,0.58-1.55,0.58-2.5s-0.19-1.78-0.58-2.5c-0.38-0.71-0.91-1.26-1.57-1.65
			c-0.66-0.38-1.41-0.58-2.24-0.58s-1.58,0.19-2.24,0.58s-1.18,0.93-1.57,1.65c-0.38,0.71-0.58,1.55-0.58,2.5s0.19,1.78,0.58,2.5
			c0.38,0.72,0.91,1.27,1.57,1.66c0.66,0.38,1.41,0.58,2.24,0.58S138.36,95.27,139.03,94.89z"/>
		<path class="st0" d="M166.87,96.33l-1.52-1.55c-0.54,0.6-1.12,1.04-1.74,1.32c-0.62,0.28-1.32,0.42-2.1,0.42
			c-0.75,0-1.41-0.14-1.98-0.42c-0.58-0.28-1.02-0.68-1.34-1.19c-0.32-0.51-0.48-1.1-0.48-1.78c0-0.79,0.22-1.48,0.67-2.06
			c0.45-0.59,1.1-1.05,1.97-1.38c-0.37-0.42-0.65-0.8-0.82-1.16c-0.17-0.36-0.26-0.74-0.26-1.16c0-0.71,0.26-1.29,0.77-1.74
			c0.51-0.44,1.19-0.66,2.05-0.66c0.8,0,1.45,0.23,1.95,0.69c0.5,0.46,0.74,1.06,0.7,1.79h-1.12c0.01-0.48-0.14-0.86-0.44-1.14
			c-0.3-0.28-0.69-0.42-1.14-0.42c-0.49,0-0.89,0.14-1.19,0.41c-0.3,0.27-0.46,0.62-0.46,1.05c0,0.34,0.09,0.67,0.28,0.99
			c0.19,0.32,0.48,0.7,0.89,1.14l3.68,3.73c0.15-0.2,0.35-0.52,0.61-0.96l1.02-1.71h1.2l-1.22,2.1c-0.29,0.5-0.58,0.95-0.86,1.34
			l2.34,2.35H166.87z M163.19,95.18c0.5-0.25,0.97-0.63,1.42-1.15l-3.57-3.62c-1.48,0.54-2.22,1.44-2.22,2.69
			c0,0.47,0.11,0.89,0.34,1.26c0.23,0.37,0.55,0.66,0.95,0.87c0.41,0.21,0.87,0.32,1.39,0.32C162.13,95.54,162.7,95.42,163.19,95.18
			z"/>
		<path class="st0" d="M190.67,91.51c0.44,0.52,0.66,1.13,0.66,1.82c0,0.57-0.14,1.08-0.42,1.53c-0.28,0.45-0.7,0.81-1.24,1.07
			c-0.54,0.26-1.19,0.39-1.95,0.39h-3.87V85.14h3.76c1.13,0,1.99,0.26,2.58,0.78c0.59,0.52,0.89,1.2,0.89,2.03
			c0,0.69-0.19,1.26-0.56,1.69c-0.37,0.43-0.85,0.73-1.44,0.9C189.7,90.67,190.24,90.99,190.67,91.51z M184.96,90.09h2.61
			c0.76,0,1.34-0.18,1.75-0.54c0.41-0.36,0.62-0.85,0.62-1.48c0-0.62-0.21-1.1-0.62-1.46c-0.41-0.35-1.01-0.53-1.8-0.53h-2.56V90.09
			z M189.53,94.81c0.45-0.38,0.68-0.91,0.68-1.58c0-0.67-0.24-1.21-0.71-1.61c-0.47-0.4-1.11-0.6-1.91-0.6h-2.62v4.37h2.67
			C188.44,95.38,189.08,95.19,189.53,94.81z"/>
		<path class="st0" d="M204.67,93.67h-5.09l-0.98,2.66h-1.18l4.08-11.04h1.26l4.06,11.04h-1.18L204.67,93.67z M204.34,92.74
			l-2.21-6.05l-2.21,6.05H204.34z"/>
		<path class="st0" d="M219.38,96.33l-2.77-4.67h-2.06v4.67h-1.12V85.14h3.36c1.25,0,2.2,0.3,2.84,0.9c0.64,0.6,0.97,1.38,0.97,2.35
			c0,0.81-0.23,1.5-0.7,2.07c-0.46,0.57-1.15,0.94-2.06,1.11l2.88,4.75H219.38z M214.54,90.74h2.26c0.87,0,1.53-0.21,1.98-0.64
			s0.66-1,0.66-1.71c0-0.74-0.21-1.3-0.64-1.7c-0.43-0.4-1.1-0.6-2.02-0.6h-2.24V90.74z"/>
	</g>
</g>
</svg>
