<?xml version="1.0" encoding="utf-8"?>
<!-- Generator: Adobe Illustrator 27.2.0, SVG Export Plug-In . SVG Version: 6.00 Build 0)  -->
<svg version="1.1" id="Layer_1" xmlns="http://www.w3.org/2000/svg" xmlns:xlink="http://www.w3.org/1999/xlink" x="0px" y="0px"
	 viewBox="0 0 512 512" style="enable-background:new 0 0 512 512;" xml:space="preserve">
<style type="text/css">
	.st0{fill:#1C1C1C;}
	.st1{fill:#E80013;}
	.st2{fill:#FFFFFF;}
</style>
<rect x="0" class="st0" width="512" height="512"/>
<rect x="280.51" y="267.66" transform="matrix(0.7071 -0.7071 0.7071 0.7071 -111.8256 288.1324)" class="st1" width="22.8" height="22.8"/>
<g>
	<g>
		<path class="st2" d="M85.29,306.77c-6.2,0-11.98-1.16-17.36-3.49c-5.38-2.32-10.09-5.51-14.14-9.57
			c-4.05-4.05-7.24-8.77-9.57-14.14c-2.32-5.38-3.48-11.16-3.48-17.36v-56.85h16.4v56.85c0,3.92,0.73,7.58,2.19,11
			c1.46,3.42,3.46,6.4,6.01,8.95c2.55,2.55,5.54,4.56,8.95,6.01c3.42,1.46,7.08,2.19,11,2.19c3.92,0,7.58-0.73,11-2.19
			c3.42-1.46,6.4-3.46,8.95-6.01c2.55-2.55,4.58-5.53,6.08-8.95c1.5-3.42,2.25-7.08,2.25-11v-56.85h16.4v56.85
			c0,6.2-1.19,11.98-3.55,17.36c-2.37,5.38-5.56,10.09-9.57,14.14c-4.01,4.06-8.75,7.24-14.21,9.57
			C97.18,305.61,91.39,306.77,85.29,306.77z"/>
	</g>
	<g>
		<path class="st2" d="M220.17,306.77v-68.74l-28.7,21.32l-28.7-21.32v68.74h-16.4V205.51l45.1,33.48
			c7.38-5.56,14.87-11.14,22.48-16.74c7.61-5.6,15.15-11.18,22.62-16.74v101.26H220.17z"/>
	</g>
	<polygon class="st2" points="293.69,205.23 339.2,306.77 321.02,306.77 291.64,240.49 262.4,306.77 244.09,306.77 289.73,205.23 	
		"/>
	<g>
		<path class="st2" d="M420.65,306.77v-68.74l-28.7,21.32l-28.7-21.32v68.74h-16.4V205.51l45.1,33.48
			c7.38-5.56,14.87-11.14,22.48-16.74c7.61-5.6,15.15-11.18,22.62-16.74v101.26H420.65z"/>
	</g>
	<g>
		<path class="st2" d="M453.45,306.77V205.23h16.4v101.54H453.45z"/>
	</g>
</g>
</svg>
